<?xml version="1.0" encoding="utf-8"?>
<!-- Generator: Adobe Illustrator 24.0.2, SVG Export Plug-In . SVG Version: 6.00 Build 0)  -->
<svg version="1.1" xmlns="http://www.w3.org/2000/svg" xmlns:xlink="http://www.w3.org/1999/xlink" x="0px" y="0px"
	 viewBox="0 0 24 24" style="enable-background:new 0 0 24 24;" xml:space="preserve">
<style type="text/css">
	.st0{fill:none;}
	.st1{fill:#725b3a;}
</style>
<g id="bounding_area">
	<rect class="st0" width="24" height="24"/>
</g>
<g id="design">
	<g>
		<path class="st1" d="M15.25,7.5h-6.5C8.34,7.5,8,7.16,8,6.75S8.34,6,8.75,6h6.5C15.66,6,16,6.33,16,6.75S15.66,7.5,15.25,7.5z"/>
		<path class="st1" d="M18.25,2H7.75C5.68,2,4,3.68,4,5.75v12.59h0.01C4,18.39,4,18.45,4,18.5C4,20.43,5.57,22,7.5,22h11.75
			c0.42,0,0.75-0.34,0.75-0.75V3.75C20,2.78,19.22,2,18.25,2z M5.5,5.75c0-1.24,1.01-2.25,2.25-2.25h10.5
			c0.14,0,0.25,0.11,0.25,0.25V15h-11c-0.74,0-1.44,0.23-2,0.64V5.75z M18.5,20.5h-11c-1.1,0-2-0.9-2-2c0-1.1,0.9-2,2-2h11V20.5z"/>
	</g>
</g>
</svg>
