<?xml version="1.0" encoding="utf-8"?>
<!-- Generator: Adobe Illustrator 24.0.2, SVG Export Plug-In . SVG Version: 6.00 Build 0)  -->
<svg version="1.1" xmlns="http://www.w3.org/2000/svg" xmlns:xlink="http://www.w3.org/1999/xlink" x="0px" y="0px"
	 viewBox="0 0 24 24" style="enable-background:new 0 0 24 24;" xml:space="preserve">
<style type="text/css">
	.st0{fill:none;}
	.st1{fill:#28353c;}
</style>
<g id="bounding_area">
	<rect class="st0" width="24" height="24"/>
</g>
<g id="design">
	<path class="st1" d="M18.05,21.98c-0.37,0-0.74-0.1-1.06-0.31c0,0,0,0,0,0l-4.86-3.13c-0.08-0.05-0.19-0.05-0.27,0L7,21.67
		c-0.6,0.39-1.36,0.42-1.99,0.07C4.39,21.4,4,20.75,4,20.03V3.75C4,2.78,4.78,2,5.75,2h12.51C19.22,2,20,2.78,20,3.75v16.28
		c0,0.71-0.39,1.37-1.02,1.71C18.69,21.9,18.37,21.98,18.05,21.98z M17.81,20.41c0.2,0.13,0.39,0.05,0.46,0.02
		c0.07-0.04,0.23-0.15,0.23-0.4V3.75c0-0.14-0.11-0.25-0.25-0.25H5.75C5.61,3.5,5.5,3.61,5.5,3.75v16.28c0,0.24,0.16,0.36,0.23,0.4
		c0.07,0.04,0.26,0.12,0.46-0.02l4.86-3.13c0.58-0.37,1.32-0.37,1.9,0L17.81,20.41z"/>
</g>
</svg>
