<?xml version="1.0" encoding="utf-8"?>
<!-- Generator: Adobe Illustrator 24.0.2, SVG Export Plug-In . SVG Version: 6.00 Build 0)  -->
<svg version="1.1" xmlns="http://www.w3.org/2000/svg" xmlns:xlink="http://www.w3.org/1999/xlink" x="0px" y="0px"
	 viewBox="0 0 24 24" style="enable-background:new 0 0 24 24;" xml:space="preserve">
<style type="text/css">
	.st0{fill:none;}
	.st1{display:none;}
	.st2{display:inline;}
	.st3{fill:none;stroke:#CECECE;stroke-width:0.1;stroke-miterlimit:10;}
	.st4{fill:#28353c;}
</style>
<g id="bounding_box">
	<rect x="0" y="0" class="st0" width="24" height="24"/>
</g>
<g id="design">
	<path class="st4" d="M20.53,19.32l-3.73-3.73c1.06-1.33,1.7-3.02,1.7-4.84C18.5,6.48,15.02,3,10.75,3S3,6.48,3,10.75
		c0,4.27,3.48,7.75,7.75,7.75c1.9,0,3.65-0.69,5.01-1.83l3.71,3.71c0.15,0.15,0.34,0.22,0.53,0.22s0.38-0.07,0.53-0.22
		C20.82,20.09,20.82,19.61,20.53,19.32z M4.5,10.75c0-3.45,2.8-6.25,6.25-6.25S17,7.3,17,10.75c0,1.69-0.66,3.21-1.75,4.33
		l-0.01,0.01c-0.01,0.01-0.01,0.01-0.01,0.02C14.09,16.28,12.5,17,10.75,17C7.3,17,4.5,14.2,4.5,10.75z"/>
</g>
</svg>
