<svg xmlns="http://www.w3.org/2000/svg" viewBox="0 0 500 500" width="500" height="500" preserveAspectRatio="xMidYMid meet" style="width: 100%; height: 100%; transform: translate3d(0px, 0px, 0px); content-visibility: visible;"><defs><clipPath id="__lottie_element_1443"><rect width="500" height="500" x="0" y="0"></rect></clipPath><clipPath id="__lottie_element_1446"><path d="M0,0 L500,0 L500,500 L0,500z"></path></clipPath><clipPath id="__lottie_element_1450"><path d="M0,0 L500,0 L500,500 L0,500z"></path></clipPath><clipPath id="__lottie_element_1454"><path d="M0,0 L500,0 L500,500 L0,500z"></path></clipPath><clipPath id="__lottie_element_1458"><path d="M0,0 L500,0 L500,500 L0,500z"></path></clipPath><clipPath id="__lottie_element_1462"><path d="M0,0 L500,0 L500,500 L0,500z"></path></clipPath><filter id="__lottie_element_1493" filterUnits="objectBoundingBox" x="0%" y="0%" width="100%" height="100%"><feComponentTransfer in="SourceGraphic"><feFuncA type="table" tableValues="1.0 0.0"></feFuncA></feComponentTransfer></filter><mask id="__lottie_element_1492" mask-type="alpha"><g filter="url(#__lottie_element_1493)"><rect width="500" height="500" x="0" y="0" fill="#ffffff" opacity="0"></rect><g transform="matrix(1,0,0,1,250,-195.97488403320312)" opacity="1" style="display: none;"><g opacity="1" transform="matrix(1,0,0,1,0,0)"><path fill="rgb(0,0,0)" fill-opacity="1" d=" M250,-250 C250,-250 250,250 250,250 C250,250 -250,250 -250,250 C-250,250 -250,-250 -250,-250 C-250,-250 250,-250 250,-250z"></path><path stroke-linecap="butt" stroke-linejoin="miter" fill-opacity="0" stroke-miterlimit="4" stroke="rgb(0,0,0)" stroke-opacity="1" stroke-width="0" d=" M250,-250 C250,-250 250,250 250,250 C250,250 -250,250 -250,250 C-250,250 -250,-250 -250,-250 C-250,-250 250,-250 250,-250z"></path></g></g></g></mask><filter id="__lottie_element_1503" filterUnits="objectBoundingBox" x="0%" y="0%" width="100%" height="100%"><feComponentTransfer in="SourceGraphic"><feFuncA type="table" tableValues="1.0 0.0"></feFuncA></feComponentTransfer></filter><mask id="__lottie_element_1502" mask-type="alpha"><g filter="url(#__lottie_element_1503)"><rect width="500" height="500" x="0" y="0" fill="#ffffff" opacity="0"></rect><g transform="matrix(1,0,0,1,250,-195.97488403320312)" opacity="1" style="display: none;"><g opacity="1" transform="matrix(1,0,0,1,0,0)"><path fill="rgb(0,0,0)" fill-opacity="1" d=" M250,-250 C250,-250 250,250 250,250 C250,250 -250,250 -250,250 C-250,250 -250,-250 -250,-250 C-250,-250 250,-250 250,-250z"></path><path stroke-linecap="butt" stroke-linejoin="miter" fill-opacity="0" stroke-miterlimit="4" stroke="rgb(0,0,0)" stroke-opacity="1" stroke-width="0" d=" M250,-250 C250,-250 250,250 250,250 C250,250 -250,250 -250,250 C-250,250 -250,-250 -250,-250 C-250,-250 250,-250 250,-250z"></path></g></g></g></mask></defs><g clip-path="url(#__lottie_element_1443)"><g clip-path="url(#__lottie_element_1446)" transform="matrix(1,0,0,1,0,0)" opacity="0" style="display: block;"><g class="primary design" transform="matrix(20.829999923706055,0,0,20.829999923706055,250.0019989013672,250.04100036621094)" opacity="1" style="display: none;"><g opacity="1" transform="matrix(1,0,0,1,0,0)"><path fill="#725b3a" fill-opacity="1" d=" M6.050000190734863,9.998000144958496 C5.679999828338623,9.998000144958496 5.309999942779541,9.89799976348877 4.989999771118164,9.687999725341797 C4.989999771118164,9.687999725341797 4.989999771118164,9.687999725341797 4.989999771118164,9.687999725341797 C4.989999771118164,9.687999725341797 0.12999999523162842,6.547999858856201 0.12999999523162842,6.547999858856201 C0.05000000074505806,6.498000144958496 -0.05999999865889549,6.498000144958496 -0.14000000059604645,6.547999858856201 C-0.14000000059604645,6.547999858856201 -5,9.687999725341797 -5,9.687999725341797 C-5.599999904632568,10.07800006866455 -6.360000133514404,10.107999801635742 -6.989999771118164,9.758000373840332 C-7.610000133514404,9.418000221252441 -8,8.758000373840332 -8,8.04800033569336 C-8,8.04800033569336 -8,-8.251999855041504 -8,-8.251999855041504 C-8,-9.211999893188477 -7.21999979019165,-10.001999855041504 -6.25,-10.001999855041504 C-6.25,-10.001999855041504 6.25,-10.001999855041504 6.25,-10.001999855041504 C7.21999979019165,-10.001999855041504 8,-9.211999893188477 8,-8.251999855041504 C8,-8.251999855041504 8,8.04800033569336 8,8.04800033569336 C8,8.758000373840332 7.610000133514404,9.418000221252441 6.980000019073486,9.758000373840332 C6.690000057220459,9.918000221252441 6.369999885559082,9.998000144958496 6.050000190734863,9.998000144958496z M5.809999942779541,8.428000450134277 C6.010000228881836,8.557999610900879 6.199999809265137,8.477999687194824 6.269999980926514,8.447999954223633 C6.340000152587891,8.407999992370605 6.5,8.29800033569336 6.5,8.04800033569336 C6.5,8.04800033569336 6.5,-8.251999855041504 6.5,-8.251999855041504 C6.5,-8.392000198364258 6.389999866485596,-8.501999855041504 6.25,-8.501999855041504 C6.25,-8.501999855041504 -6.25,-8.501999855041504 -6.25,-8.501999855041504 C-6.389999866485596,-8.501999855041504 -6.5,-8.392000198364258 -6.5,-8.251999855041504 C-6.5,-8.251999855041504 -6.5,8.04800033569336 -6.5,8.04800033569336 C-6.5,8.288000106811523 -6.340000152587891,8.407999992370605 -6.269999980926514,8.447999954223633 C-6.199999809265137,8.48799991607666 -6.010000228881836,8.567999839782715 -5.809999942779541,8.428000450134277 C-5.809999942779541,8.428000450134277 -0.949999988079071,5.288000106811523 -0.949999988079071,5.288000106811523 C-0.3700000047683716,4.918000221252441 0.3700000047683716,4.918000221252441 0.9399999976158142,5.288000106811523 C0.9399999976158142,5.288000106811523 5.809999942779541,8.428000450134277 5.809999942779541,8.428000450134277z"></path></g></g><g class="primary design" transform="matrix(20.829999923706055,0,0,20.829999923706055,250.0019989013672,250.04100036621094)" opacity="1" style="display: block;"><g opacity="1" transform="matrix(1,0,0,1,0,0)"><path fill="#725b3a" fill-opacity="1" d=" M6.050000190734863,9.998000144958496 C5.679999828338623,9.998000144958496 5.309999942779541,9.89799976348877 4.989999771118164,9.687999725341797 C4.989999771118164,9.687999725341797 4.989999771118164,9.687999725341797 4.989999771118164,9.687999725341797 C4.989999771118164,9.687999725341797 0.12999999523162842,6.547999858856201 0.12999999523162842,6.547999858856201 C0.05000000074505806,6.498000144958496 -0.05999999865889549,6.498000144958496 -0.14000000059604645,6.547999858856201 C-0.14000000059604645,6.547999858856201 -5,9.687999725341797 -5,9.687999725341797 C-5.599999904632568,10.07800006866455 -6.360000133514404,10.107999801635742 -6.989999771118164,9.758000373840332 C-7.610000133514404,9.418000221252441 -8,8.758000373840332 -8,8.04800033569336 C-8,8.04800033569336 -8,-8.251999855041504 -8,-8.251999855041504 C-8,-9.211999893188477 -7.21999979019165,-10.001999855041504 -6.25,-10.001999855041504 C-6.25,-10.001999855041504 6.25,-10.001999855041504 6.25,-10.001999855041504 C7.21999979019165,-10.001999855041504 8,-9.211999893188477 8,-8.251999855041504 C8,-8.251999855041504 8,8.04800033569336 8,8.04800033569336 C8,8.758000373840332 7.610000133514404,9.418000221252441 6.980000019073486,9.758000373840332 C6.690000057220459,9.918000221252441 6.369999885559082,9.998000144958496 6.050000190734863,9.998000144958496z"></path></g></g><g mask="url(#__lottie_element_1492)" style="display: none;"><g class="primary design" transform="matrix(1,0,0,1,250.00399780273438,249.83599853515625)" opacity="1"><path fill="#28353c" fill-opacity="1" d=" M-136.03599548339844,190.46600341796875 C-128.83200073242188,193.60499572753906 -120.14299774169922,193.43099975585938 -112.5510025024414,188.53799438476562 C-112.5510025024414,188.53799438476562 -11.28600025177002,123.26300048828125 -11.28600025177002,123.26300048828125 C-4.413000106811523,118.83300018310547 4.414999961853027,118.83300018310547 11.288000106811523,123.26300048828125 C11.288000106811523,123.26300048828125 112.5510025024414,188.53799438476562 112.5510025024414,188.53799438476562 C129.18699645996094,199.26100158691406 151.0959930419922,187.31700134277344 151.0959930419922,167.52499389648438 C151.0959930419922,167.52499389648438 151.0959930419922,63.284000396728516 151.0959930419922,11.163999557495117 C151.0959930419922,-49.80099868774414 151.0959930419922,-171.73300170898438 151.0959930419922,-171.73300170898438 C151.0959930419922,-183.23899841308594 141.76699829101562,-192.5659942626953 130.26199340820312,-192.5659942626953 C130.26199340820312,-192.5659942626953 130.26199340820312,-192.5659942626953 130.26199340820312,-192.5659942626953 C130.26199340820312,-192.5659942626953 -130.26199340820312,-192.5659942626953 -130.26199340820312,-192.5659942626953 C-141.76800537109375,-192.5659942626953 -151.0959930419922,-183.23899841308594 -151.0959930419922,-171.73300170898438 C-151.0959930419922,-171.73300170898438 -151.0959930419922,-51.80099868774414 -151.0959930419922,8.163999557495117 C-151.0959930419922,61.284000396728516 -151.0959930419922,167.52499389648438 -151.0959930419922,167.52499389648438 C-151.0959930419922,178.28599548339844 -144.6199951171875,186.7270050048828 -136.03599548339844,190.46600341796875"></path><g opacity="1" transform="matrix(1,0,0,1,0,0)"><path stroke-linecap="round" stroke-linejoin="round" fill-opacity="0" stroke="#725b3a" stroke-opacity="1" stroke-width="31.3" d=" M-136.03599548339844,190.46600341796875 C-128.83200073242188,193.60499572753906 -120.14299774169922,193.43099975585938 -112.5510025024414,188.53799438476562 C-112.5510025024414,188.53799438476562 -11.28600025177002,123.26300048828125 -11.28600025177002,123.26300048828125 C-4.413000106811523,118.83300018310547 4.414999961853027,118.83300018310547 11.288000106811523,123.26300048828125 C11.288000106811523,123.26300048828125 112.5510025024414,188.53799438476562 112.5510025024414,188.53799438476562 C129.18699645996094,199.26100158691406 151.0959930419922,187.31700134277344 151.0959930419922,167.52499389648438 C151.0959930419922,167.52499389648438 151.0959930419922,63.284000396728516 151.0959930419922,11.163999557495117 C151.0959930419922,-49.80099868774414 151.0959930419922,-171.73300170898438 151.0959930419922,-171.73300170898438 C151.0959930419922,-183.23899841308594 141.76699829101562,-192.5659942626953 130.26199340820312,-192.5659942626953 C130.26199340820312,-192.5659942626953 130.26199340820312,-192.5659942626953 130.26199340820312,-192.5659942626953 C130.26199340820312,-192.5659942626953 -130.26199340820312,-192.5659942626953 -130.26199340820312,-192.5659942626953 C-141.76800537109375,-192.5659942626953 -151.0959930419922,-183.23899841308594 -151.0959930419922,-171.73300170898438 C-151.0959930419922,-171.73300170898438 -151.0959930419922,-51.80099868774414 -151.0959930419922,8.163999557495117 C-151.0959930419922,61.284000396728516 -151.0959930419922,167.52499389648438 -151.0959930419922,167.52499389648438 C-151.0959930419922,178.28599548339844 -144.6199951171875,186.7270050048828 -136.03599548339844,190.46600341796875"></path></g></g></g><g class="primary design" transform="matrix(1,0,0,1,250.00399780273438,249.83599853515625)" opacity="1" style="display: none;"><g opacity="1" transform="matrix(1,0,0,1,0,0)"><path stroke-linecap="round" stroke-linejoin="round" fill-opacity="0" stroke="#725b3a" stroke-opacity="1" stroke-width="31.3" d=" M130.26199340820312,-192.5659942626953 C130.26199340820312,-192.5659942626953 -130.26199340820312,-192.5659942626953 -130.26199340820312,-192.5659942626953 C-135.86399841308594,-192.5659942626953 -140.9499969482422,-190.35499572753906 -144.69400024414062,-186.75799560546875"></path></g></g><g class="primary design" transform="matrix(1,0,0,1,252.5,156)" opacity="1" style="display: none;"><g opacity="1" transform="matrix(1,0,0,1,-2.5,-98)"><path stroke-linecap="round" stroke-linejoin="round" fill-opacity="0" stroke="#725b3a" stroke-opacity="1" stroke-width="31.3" d=" M187,0 C187,0 187,0 187,0 C187,0.013213866390287876 186.98927307128906,0.023942500352859497 186.97605895996094,0.023942500352859497 C186.97605895996094,0.023942500352859497 -186.97605895996094,0.023942500352859497 -186.97605895996094,0.023942500352859497 C-186.98927307128906,0.023942500352859497 -187,0.013213866390287876 -187,0 C-187,0 -187,0 -187,0 C-187,-0.013213866390287876 -186.98927307128906,-0.023942500352859497 -186.97605895996094,-0.023942500352859497 C-186.97605895996094,-0.023942500352859497 186.97605895996094,-0.023942500352859497 186.97605895996094,-0.023942500352859497 C186.98927307128906,-0.023942500352859497 187,-0.013213866390287876 187,0z"></path></g></g></g><g clip-path="url(#__lottie_element_1450)" transform="matrix(1,0,0,1,0,0)" opacity="0" style="display: block;"><g class="primary design" transform="matrix(20.829999923706055,0,0,20.829999923706055,250.0019989013672,250.04100036621094)" opacity="1" style="display: none;"><g opacity="1" transform="matrix(1,0,0,1,0,0)"><path fill="#28353c" fill-opacity="1" d=" M6.050000190734863,9.998000144958496 C5.679999828338623,9.998000144958496 5.309999942779541,9.89799976348877 4.989999771118164,9.687999725341797 C4.989999771118164,9.687999725341797 4.989999771118164,9.687999725341797 4.989999771118164,9.687999725341797 C4.989999771118164,9.687999725341797 0.12999999523162842,6.547999858856201 0.12999999523162842,6.547999858856201 C0.05000000074505806,6.498000144958496 -0.05999999865889549,6.498000144958496 -0.14000000059604645,6.547999858856201 C-0.14000000059604645,6.547999858856201 -5,9.687999725341797 -5,9.687999725341797 C-5.599999904632568,10.07800006866455 -6.360000133514404,10.107999801635742 -6.989999771118164,9.758000373840332 C-7.610000133514404,9.418000221252441 -8,8.758000373840332 -8,8.04800033569336 C-8,8.04800033569336 -8,-8.251999855041504 -8,-8.251999855041504 C-8,-9.211999893188477 -7.21999979019165,-10.001999855041504 -6.25,-10.001999855041504 C-6.25,-10.001999855041504 6.25,-10.001999855041504 6.25,-10.001999855041504 C7.21999979019165,-10.001999855041504 8,-9.211999893188477 8,-8.251999855041504 C8,-8.251999855041504 8,8.04800033569336 8,8.04800033569336 C8,8.758000373840332 7.610000133514404,9.418000221252441 6.980000019073486,9.758000373840332 C6.690000057220459,9.918000221252441 6.369999885559082,9.998000144958496 6.050000190734863,9.998000144958496z"></path></g></g><g class="primary design" transform="matrix(20.829999923706055,0,0,20.829999923706055,250.0019989013672,250.04100036621094)" opacity="1" style="display: block;"><g opacity="1" transform="matrix(1,0,0,1,0,0)"><path fill="#28353c" fill-opacity="1" d=" M6.050000190734863,9.998000144958496 C5.679999828338623,9.998000144958496 5.309999942779541,9.89799976348877 4.989999771118164,9.687999725341797 C4.989999771118164,9.687999725341797 4.989999771118164,9.687999725341797 4.989999771118164,9.687999725341797 C4.989999771118164,9.687999725341797 0.12999999523162842,6.547999858856201 0.12999999523162842,6.547999858856201 C0.05000000074505806,6.498000144958496 -0.05999999865889549,6.498000144958496 -0.14000000059604645,6.547999858856201 C-0.14000000059604645,6.547999858856201 -5,9.687999725341797 -5,9.687999725341797 C-5.599999904632568,10.07800006866455 -6.360000133514404,10.107999801635742 -6.989999771118164,9.758000373840332 C-7.610000133514404,9.418000221252441 -8,8.758000373840332 -8,8.04800033569336 C-8,8.04800033569336 -8,-8.251999855041504 -8,-8.251999855041504 C-8,-9.211999893188477 -7.21999979019165,-10.001999855041504 -6.25,-10.001999855041504 C-6.25,-10.001999855041504 6.25,-10.001999855041504 6.25,-10.001999855041504 C7.21999979019165,-10.001999855041504 8,-9.211999893188477 8,-8.251999855041504 C8,-8.251999855041504 8,8.04800033569336 8,8.04800033569336 C8,8.758000373840332 7.610000133514404,9.418000221252441 6.980000019073486,9.758000373840332 C6.690000057220459,9.918000221252441 6.369999885559082,9.998000144958496 6.050000190734863,9.998000144958496z M5.809999942779541,8.428000450134277 C6.010000228881836,8.557999610900879 6.199999809265137,8.477999687194824 6.269999980926514,8.447999954223633 C6.340000152587891,8.407999992370605 6.5,8.29800033569336 6.5,8.04800033569336 C6.5,8.04800033569336 6.5,-8.251999855041504 6.5,-8.251999855041504 C6.5,-8.392000198364258 6.389999866485596,-8.501999855041504 6.25,-8.501999855041504 C6.25,-8.501999855041504 -6.25,-8.501999855041504 -6.25,-8.501999855041504 C-6.389999866485596,-8.501999855041504 -6.5,-8.392000198364258 -6.5,-8.251999855041504 C-6.5,-8.251999855041504 -6.5,8.04800033569336 -6.5,8.04800033569336 C-6.5,8.288000106811523 -6.340000152587891,8.407999992370605 -6.269999980926514,8.447999954223633 C-6.199999809265137,8.48799991607666 -6.010000228881836,8.567999839782715 -5.809999942779541,8.428000450134277 C-5.809999942779541,8.428000450134277 -0.949999988079071,5.288000106811523 -0.949999988079071,5.288000106811523 C-0.3700000047683716,4.918000221252441 0.3700000047683716,4.918000221252441 0.9399999976158142,5.288000106811523 C0.9399999976158142,5.288000106811523 5.809999942779541,8.428000450134277 5.809999942779541,8.428000450134277z"></path></g></g><g mask="url(#__lottie_element_1502)" style="display: none;"><g class="primary design" transform="matrix(1,0,0,1,250.00399780273438,249.83599853515625)" opacity="1"><g opacity="1" transform="matrix(1,0,0,1,0,0)"><path stroke-linecap="round" stroke-linejoin="round" fill-opacity="0" stroke="#725b3a" stroke-opacity="1" stroke-width="31.3" d=" M-136.03599548339844,190.46600341796875 C-128.83200073242188,193.60499572753906 -120.14299774169922,193.43099975585938 -112.5510025024414,188.53799438476562 C-112.5510025024414,188.53799438476562 -11.28600025177002,123.26300048828125 -11.28600025177002,123.26300048828125 C-4.413000106811523,118.83300018310547 4.414999961853027,118.83300018310547 11.288000106811523,123.26300048828125 C11.288000106811523,123.26300048828125 112.5510025024414,188.53799438476562 112.5510025024414,188.53799438476562 C129.18699645996094,199.26100158691406 151.0959930419922,187.31700134277344 151.0959930419922,167.52499389648438 C151.0959930419922,167.52499389648438 151.0959930419922,63.284000396728516 151.0959930419922,11.163999557495117 C151.0959930419922,-49.80099868774414 151.0959930419922,-171.73300170898438 151.0959930419922,-171.73300170898438 C151.0959930419922,-183.23899841308594 141.76699829101562,-192.5659942626953 130.26199340820312,-192.5659942626953 C130.26199340820312,-192.5659942626953 130.26199340820312,-192.5659942626953 130.26199340820312,-192.5659942626953 C130.26199340820312,-192.5659942626953 -130.26199340820312,-192.5659942626953 -130.26199340820312,-192.5659942626953 C-141.76800537109375,-192.5659942626953 -151.0959930419922,-183.23899841308594 -151.0959930419922,-171.73300170898438 C-151.0959930419922,-171.73300170898438 -151.0959930419922,-51.80099868774414 -151.0959930419922,8.163999557495117 C-151.0959930419922,61.284000396728516 -151.0959930419922,167.52499389648438 -151.0959930419922,167.52499389648438 C-151.0959930419922,178.28599548339844 -144.6199951171875,186.7270050048828 -136.03599548339844,190.46600341796875"></path></g></g></g><g class="primary design" transform="matrix(1,0,0,1,250.00399780273438,249.83599853515625)" opacity="1" style="display: none;"><path fill="#28353c" fill-opacity="1" d=" M130.26199340820312,-192.5659942626953 C130.26199340820312,-192.5659942626953 -130.26199340820312,-192.5659942626953 -130.26199340820312,-192.5659942626953 C-135.86399841308594,-192.5659942626953 -140.9499969482422,-190.35499572753906 -144.69400024414062,-186.75799560546875"></path><g opacity="1" transform="matrix(1,0,0,1,0,0)"><path stroke-linecap="round" stroke-linejoin="round" fill-opacity="0" stroke="#725b3a" stroke-opacity="1" stroke-width="31.3" d=" M130.26199340820312,-192.5659942626953 C130.26199340820312,-192.5659942626953 -130.26199340820312,-192.5659942626953 -130.26199340820312,-192.5659942626953 C-135.86399841308594,-192.5659942626953 -140.9499969482422,-190.35499572753906 -144.69400024414062,-186.75799560546875"></path></g></g><g class="primary design" transform="matrix(1,0,0,1,252.5,156)" opacity="1" style="display: none;"><path fill="#28353c" fill-opacity="1" d=" M184.5,-98 C184.5,-98 184.5,-98 184.5,-98 C184.5,-97.99 184.49,-97.98 184.48,-97.98 C184.48,-97.98 -189.48,-97.98 -189.48,-97.98 C-189.49,-97.98 -189.5,-97.99 -189.5,-98 C-189.5,-98 -189.5,-98 -189.5,-98 C-189.5,-98.01 -189.49,-98.02 -189.48,-98.02 C-189.48,-98.02 184.48,-98.02 184.48,-98.02 C184.49,-98.02 184.5,-98.01 184.5,-98z"></path><g opacity="1" transform="matrix(1,0,0,1,-2.5,-98)"><path stroke-linecap="round" stroke-linejoin="round" fill-opacity="0" stroke="#725b3a" stroke-opacity="1" stroke-width="31.3" d=" M187,0 C187,0 187,0 187,0 C187,0.013213866390287876 186.98927307128906,0.023942500352859497 186.97605895996094,0.023942500352859497 C186.97605895996094,0.023942500352859497 -186.97605895996094,0.023942500352859497 -186.97605895996094,0.023942500352859497 C-186.98927307128906,0.023942500352859497 -187,0.013213866390287876 -187,0 C-187,0 -187,0 -187,0 C-187,-0.013213866390287876 -186.98927307128906,-0.023942500352859497 -186.97605895996094,-0.023942500352859497 C-186.97605895996094,-0.023942500352859497 186.97605895996094,-0.023942500352859497 186.97605895996094,-0.023942500352859497 C186.98927307128906,-0.023942500352859497 187,-0.013213866390287876 187,0z"></path></g></g></g><g clip-path="url(#__lottie_element_1454)" transform="matrix(1,0,0,1,0,0)" opacity="1" style="display: block;"><g class="primary design" transform="matrix(20.829999923706055,0,0,20.829999923706055,250.0019989013672,250.04100036621094)" opacity="1" style="display: none;"><g opacity="1" transform="matrix(1,0,0,1,0,0)"><path fill="#28353c" fill-opacity="1" d=" M6.050000190734863,9.998000144958496 C5.679999828338623,9.998000144958496 5.309999942779541,9.89799976348877 4.989999771118164,9.687999725341797 C4.989999771118164,9.687999725341797 4.989999771118164,9.687999725341797 4.989999771118164,9.687999725341797 C4.989999771118164,9.687999725341797 0.12999999523162842,6.547999858856201 0.12999999523162842,6.547999858856201 C0.05000000074505806,6.498000144958496 -0.05999999865889549,6.498000144958496 -0.14000000059604645,6.547999858856201 C-0.14000000059604645,6.547999858856201 -5,9.687999725341797 -5,9.687999725341797 C-5.599999904632568,10.07800006866455 -6.360000133514404,10.107999801635742 -6.989999771118164,9.758000373840332 C-7.610000133514404,9.418000221252441 -8,8.758000373840332 -8,8.04800033569336 C-8,8.04800033569336 -8,-8.251999855041504 -8,-8.251999855041504 C-8,-9.211999893188477 -7.21999979019165,-10.001999855041504 -6.25,-10.001999855041504 C-6.25,-10.001999855041504 6.25,-10.001999855041504 6.25,-10.001999855041504 C7.21999979019165,-10.001999855041504 8,-9.211999893188477 8,-8.251999855041504 C8,-8.251999855041504 8,8.04800033569336 8,8.04800033569336 C8,8.758000373840332 7.610000133514404,9.418000221252441 6.980000019073486,9.758000373840332 C6.690000057220459,9.918000221252441 6.369999885559082,9.998000144958496 6.050000190734863,9.998000144958496z M5.809999942779541,8.428000450134277 C6.010000228881836,8.557999610900879 6.199999809265137,8.477999687194824 6.269999980926514,8.447999954223633 C6.340000152587891,8.407999992370605 6.5,8.29800033569336 6.5,8.04800033569336 C6.5,8.04800033569336 6.5,-8.251999855041504 6.5,-8.251999855041504 C6.5,-8.392000198364258 6.389999866485596,-8.501999855041504 6.25,-8.501999855041504 C6.25,-8.501999855041504 -6.25,-8.501999855041504 -6.25,-8.501999855041504 C-6.389999866485596,-8.501999855041504 -6.5,-8.392000198364258 -6.5,-8.251999855041504 C-6.5,-8.251999855041504 -6.5,8.04800033569336 -6.5,8.04800033569336 C-6.5,8.288000106811523 -6.340000152587891,8.407999992370605 -6.269999980926514,8.447999954223633 C-6.199999809265137,8.48799991607666 -6.010000228881836,8.567999839782715 -5.809999942779541,8.428000450134277 C-5.809999942779541,8.428000450134277 -0.949999988079071,5.288000106811523 -0.949999988079071,5.288000106811523 C-0.3700000047683716,4.918000221252441 0.3700000047683716,4.918000221252441 0.9399999976158142,5.288000106811523 C0.9399999976158142,5.288000106811523 5.809999942779541,8.428000450134277 5.809999942779541,8.428000450134277z"></path></g></g><g class="primary design" transform="matrix(20.829999923706055,0,0,20.829999923706055,250.0019989013672,250.04100036621094)" opacity="1" style="display: block;"><g opacity="1" transform="matrix(1,0,0,1,0,0)"><path fill="#28353c" fill-opacity="1" d=" M6.050000190734863,9.998000144958496 C5.679999828338623,9.998000144958496 5.309999942779541,9.89799976348877 4.989999771118164,9.687999725341797 C4.989999771118164,9.687999725341797 4.989999771118164,9.687999725341797 4.989999771118164,9.687999725341797 C4.989999771118164,9.687999725341797 0.12999999523162842,6.547999858856201 0.12999999523162842,6.547999858856201 C0.05000000074505806,6.498000144958496 -0.05999999865889549,6.498000144958496 -0.14000000059604645,6.547999858856201 C-0.14000000059604645,6.547999858856201 -5,9.687999725341797 -5,9.687999725341797 C-5.599999904632568,10.07800006866455 -6.360000133514404,10.107999801635742 -6.989999771118164,9.758000373840332 C-7.610000133514404,9.418000221252441 -8,8.758000373840332 -8,8.04800033569336 C-8,8.04800033569336 -8,-8.251999855041504 -8,-8.251999855041504 C-8,-9.211999893188477 -7.21999979019165,-10.001999855041504 -6.25,-10.001999855041504 C-6.25,-10.001999855041504 6.25,-10.001999855041504 6.25,-10.001999855041504 C7.21999979019165,-10.001999855041504 8,-9.211999893188477 8,-8.251999855041504 C8,-8.251999855041504 8,8.04800033569336 8,8.04800033569336 C8,8.758000373840332 7.610000133514404,9.418000221252441 6.980000019073486,9.758000373840332 C6.690000057220459,9.918000221252441 6.369999885559082,9.998000144958496 6.050000190734863,9.998000144958496z M5.809999942779541,8.428000450134277 C6.010000228881836,8.557999610900879 6.199999809265137,8.477999687194824 6.269999980926514,8.447999954223633 C6.340000152587891,8.407999992370605 6.5,8.29800033569336 6.5,8.04800033569336 C6.5,8.04800033569336 6.5,-8.251999855041504 6.5,-8.251999855041504 C6.5,-8.392000198364258 6.389999866485596,-8.501999855041504 6.25,-8.501999855041504 C6.25,-8.501999855041504 -6.25,-8.501999855041504 -6.25,-8.501999855041504 C-6.389999866485596,-8.501999855041504 -6.5,-8.392000198364258 -6.5,-8.251999855041504 C-6.5,-8.251999855041504 -6.5,8.04800033569336 -6.5,8.04800033569336 C-6.5,8.288000106811523 -6.340000152587891,8.407999992370605 -6.269999980926514,8.447999954223633 C-6.199999809265137,8.48799991607666 -6.010000228881836,8.567999839782715 -5.809999942779541,8.428000450134277 C-5.809999942779541,8.428000450134277 -0.949999988079071,5.288000106811523 -0.949999988079071,5.288000106811523 C-0.3700000047683716,4.918000221252441 0.3700000047683716,4.918000221252441 0.9399999976158142,5.288000106811523 C0.9399999976158142,5.288000106811523 5.809999942779541,8.428000450134277 5.809999942779541,8.428000450134277z"></path></g></g><g class="primary design" transform="matrix(0.999998152256012,0.0019364723702892661,-0.0019364723702892661,0.999998152256012,249.631103515625,249.83563232421875)" opacity="1" style="display: none;"><g opacity="1" transform="matrix(1,0,0,1,0,0)"><path stroke-linecap="round" stroke-linejoin="round" fill-opacity="0" stroke="#725b3a" stroke-opacity="1" stroke-width="31.3" d=" M-136.2310028076172,190.22900390625 C-129.13299560546875,193.1929931640625 -120.65299987792969,192.96200561523438 -113.21299743652344,188.1909942626953 C-113.21348571777344,188.1912384033203 -11.821526527404785,123.16545104980469 -11.821526527404785,123.16545104980469 C-4.939912796020508,118.75236511230469 3.8860225677490234,118.77275848388672 10.747174263000488,123.21759033203125 C10.747174263000488,123.21759033203125 111.83561706542969,188.7111358642578 111.83561706542969,188.7111358642578 C128.4429473876953,199.47003173828125 150.30429077148438,187.59042358398438 150.4200897216797,167.79209899902344 C150.4200897216797,167.79209899902344 150.86972045898438,63.91160583496094 151.046630859375,11.06824016571045 C151.1865692138672,-50.24264907836914 151.10043334960938,-171.89028930664062 151.10043334960938,-171.89028930664062 C151.08853149414062,-183.39576721191406 141.75033569335938,-192.7126922607422 130.24588012695312,-192.7008056640625 C130.24588012695312,-192.7008056640625 130.24588012695312,-192.7008056640625 130.24588012695312,-192.7008056640625 C130.24588012695312,-192.7008056640625 -130.26597595214844,-192.43154907226562 -130.26597595214844,-192.43154907226562 C-141.77145385742188,-192.41966247558594 -151.08935546875,-183.08346557617188 -151.0774688720703,-171.57798767089844 C-151.0774688720703,-171.57798767089844 -151.00221252441406,-52.011558532714844 -151.0572509765625,7.92818546295166 C-151.10768127441406,61.04609680175781 -151.6414031982422,167.05384826660156 -151.6414031982422,167.05384826660156 C-151.6999969482422,177.97799682617188 -145.02699279785156,186.55599975585938 -136.2310028076172,190.22900390625"></path></g></g></g><g clip-path="url(#__lottie_element_1458)" transform="matrix(1,0,0,1,0,0)" opacity="0" style="display: block;"><g class="primary design" transform="matrix(20.829999923706055,0,0,20.829999923706055,250.0019989013672,250.04100036621094)" opacity="1" style="display: none;"><g opacity="1" transform="matrix(1,0,0,1,0,0)"><path fill="#28353c" fill-opacity="1" d=" M6.050000190734863,9.998000144958496 C5.679999828338623,9.998000144958496 5.309999942779541,9.89799976348877 4.989999771118164,9.687999725341797 C4.989999771118164,9.687999725341797 4.989999771118164,9.687999725341797 4.989999771118164,9.687999725341797 C4.989999771118164,9.687999725341797 0.12999999523162842,6.547999858856201 0.12999999523162842,6.547999858856201 C0.05000000074505806,6.498000144958496 -0.05999999865889549,6.498000144958496 -0.14000000059604645,6.547999858856201 C-0.14000000059604645,6.547999858856201 -5,9.687999725341797 -5,9.687999725341797 C-5.599999904632568,10.07800006866455 -6.360000133514404,10.107999801635742 -6.989999771118164,9.758000373840332 C-7.610000133514404,9.418000221252441 -8,8.758000373840332 -8,8.04800033569336 C-8,8.04800033569336 -8,-8.251999855041504 -8,-8.251999855041504 C-8,-9.211999893188477 -7.21999979019165,-10.001999855041504 -6.25,-10.001999855041504 C-6.25,-10.001999855041504 6.25,-10.001999855041504 6.25,-10.001999855041504 C7.21999979019165,-10.001999855041504 8,-9.211999893188477 8,-8.251999855041504 C8,-8.251999855041504 8,8.04800033569336 8,8.04800033569336 C8,8.758000373840332 7.610000133514404,9.418000221252441 6.980000019073486,9.758000373840332 C6.690000057220459,9.918000221252441 6.369999885559082,9.998000144958496 6.050000190734863,9.998000144958496z M5.809999942779541,8.428000450134277 C6.010000228881836,8.557999610900879 6.199999809265137,8.477999687194824 6.269999980926514,8.447999954223633 C6.340000152587891,8.407999992370605 6.5,8.29800033569336 6.5,8.04800033569336 C6.5,8.04800033569336 6.5,-8.251999855041504 6.5,-8.251999855041504 C6.5,-8.392000198364258 6.389999866485596,-8.501999855041504 6.25,-8.501999855041504 C6.25,-8.501999855041504 -6.25,-8.501999855041504 -6.25,-8.501999855041504 C-6.389999866485596,-8.501999855041504 -6.5,-8.392000198364258 -6.5,-8.251999855041504 C-6.5,-8.251999855041504 -6.5,8.04800033569336 -6.5,8.04800033569336 C-6.5,8.288000106811523 -6.340000152587891,8.407999992370605 -6.269999980926514,8.447999954223633 C-6.199999809265137,8.48799991607666 -6.010000228881836,8.567999839782715 -5.809999942779541,8.428000450134277 C-5.809999942779541,8.428000450134277 -0.949999988079071,5.288000106811523 -0.949999988079071,5.288000106811523 C-0.3700000047683716,4.918000221252441 0.3700000047683716,4.918000221252441 0.9399999976158142,5.288000106811523 C0.9399999976158142,5.288000106811523 5.809999942779541,8.428000450134277 5.809999942779541,8.428000450134277z"></path></g></g><g class="primary design" transform="matrix(20.829999923706055,0,0,20.829999923706055,250.0019989013672,250.04100036621094)" opacity="1" style="display: block;"><g opacity="1" transform="matrix(1,0,0,1,0,0)"><path fill="#28353c" fill-opacity="1" d=" M6.050000190734863,9.998000144958496 C5.679999828338623,9.998000144958496 5.309999942779541,9.89799976348877 4.989999771118164,9.687999725341797 C4.989999771118164,9.687999725341797 4.989999771118164,9.687999725341797 4.989999771118164,9.687999725341797 C4.989999771118164,9.687999725341797 0.12999999523162842,6.547999858856201 0.12999999523162842,6.547999858856201 C0.05000000074505806,6.498000144958496 -0.05999999865889549,6.498000144958496 -0.14000000059604645,6.547999858856201 C-0.14000000059604645,6.547999858856201 -5,9.687999725341797 -5,9.687999725341797 C-5.599999904632568,10.07800006866455 -6.360000133514404,10.107999801635742 -6.989999771118164,9.758000373840332 C-7.610000133514404,9.418000221252441 -8,8.758000373840332 -8,8.04800033569336 C-8,8.04800033569336 -8,-8.251999855041504 -8,-8.251999855041504 C-8,-9.211999893188477 -7.21999979019165,-10.001999855041504 -6.25,-10.001999855041504 C-6.25,-10.001999855041504 6.25,-10.001999855041504 6.25,-10.001999855041504 C7.21999979019165,-10.001999855041504 8,-9.211999893188477 8,-8.251999855041504 C8,-8.251999855041504 8,8.04800033569336 8,8.04800033569336 C8,8.758000373840332 7.610000133514404,9.418000221252441 6.980000019073486,9.758000373840332 C6.690000057220459,9.918000221252441 6.369999885559082,9.998000144958496 6.050000190734863,9.998000144958496z M5.809999942779541,8.428000450134277 C6.010000228881836,8.557999610900879 6.199999809265137,8.477999687194824 6.269999980926514,8.447999954223633 C6.340000152587891,8.407999992370605 6.5,8.29800033569336 6.5,8.04800033569336 C6.5,8.04800033569336 6.5,-8.251999855041504 6.5,-8.251999855041504 C6.5,-8.392000198364258 6.389999866485596,-8.501999855041504 6.25,-8.501999855041504 C6.25,-8.501999855041504 -6.25,-8.501999855041504 -6.25,-8.501999855041504 C-6.389999866485596,-8.501999855041504 -6.5,-8.392000198364258 -6.5,-8.251999855041504 C-6.5,-8.251999855041504 -6.5,8.04800033569336 -6.5,8.04800033569336 C-6.5,8.288000106811523 -6.340000152587891,8.407999992370605 -6.269999980926514,8.447999954223633 C-6.199999809265137,8.48799991607666 -6.010000228881836,8.567999839782715 -5.809999942779541,8.428000450134277 C-5.809999942779541,8.428000450134277 -0.949999988079071,5.288000106811523 -0.949999988079071,5.288000106811523 C-0.3700000047683716,4.918000221252441 0.3700000047683716,4.918000221252441 0.9399999976158142,5.288000106811523 C0.9399999976158142,5.288000106811523 5.809999942779541,8.428000450134277 5.809999942779541,8.428000450134277z"></path></g></g><g class="primary design" transform="matrix(1,0,0,1,250.00399780273438,249.83599853515625)" opacity="1" style="display: none;"><g opacity="1" transform="matrix(1,0,0,1,0,0)"><path stroke-linecap="round" stroke-linejoin="round" fill-opacity="0" stroke="#725b3a" stroke-opacity="1" stroke-width="31.3" d=" M-136.69700622558594,187.86300659179688 C-129.69500732421875,190.3470001220703 -121.51799774169922,189.8780059814453 -114.34700012207031,185.3769989013672 C-114.34663391113281,185.37728881835938 -11.466073989868164,120.79816436767578 -11.466073989868164,120.79816436767578 C-4.483448505401611,116.4154052734375 4.485409259796143,116.4154052734375 11.468073844909668,120.79816436767578 C11.468073844909668,120.79816436767578 114.34663391113281,185.37728881835938 114.34663391113281,185.37728881835938 C131.24803161621094,195.98599243164062 153.89602661132812,184.4681854248047 153.23397827148438,164.1988983154297 C153.23397827148438,164.1988983154297 151.9488525390625,62.422576904296875 151.6377716064453,10.57953929901123 C151.22291564941406,-50.34897232055664 151.0959930419922,-171.73300170898438 151.0959930419922,-171.73300170898438 C151.0959930419922,-183.23899841308594 141.76699829101562,-192.5659942626953 130.26199340820312,-192.5659942626953 C130.26199340820312,-192.5659942626953 130.26199340820312,-192.5659942626953 130.26199340820312,-192.5659942626953 C130.26199340820312,-192.5659942626953 -130.26199340820312,-192.5659942626953 -130.26199340820312,-192.5659942626953 C-141.76800537109375,-192.5659942626953 -151.0959930419922,-183.23899841308594 -151.0959930419922,-171.73300170898438 C-151.0959930419922,-171.73300170898438 -151.36502075195312,-51.68553161621094 -151.76158142089844,7.501964569091797 C-152.15206909179688,60.08711624145508 -153.27293395996094,164.12100219726562 -153.27293395996094,164.12100219726562 C-153.54200744628906,175.6790008544922 -146.2010040283203,184.49099731445312 -136.69700622558594,187.86300659179688"></path></g></g></g><g clip-path="url(#__lottie_element_1462)" transform="matrix(1,0,0,1,0,0)" opacity="0" style="display: block;"><g class="primary design" transform="matrix(20.829999923706055,0,0,20.829999923706055,250.0019989013672,250.04100036621094)" opacity="1" style="display: none;"><g opacity="1" transform="matrix(1,0,0,1,0,0)"><path fill="#28353c" fill-opacity="1" d=" M6.050000190734863,9.998000144958496 C5.679999828338623,9.998000144958496 5.309999942779541,9.89799976348877 4.989999771118164,9.687999725341797 C4.989999771118164,9.687999725341797 4.989999771118164,9.687999725341797 4.989999771118164,9.687999725341797 C4.989999771118164,9.687999725341797 0.12999999523162842,6.547999858856201 0.12999999523162842,6.547999858856201 C0.05000000074505806,6.498000144958496 -0.05999999865889549,6.498000144958496 -0.14000000059604645,6.547999858856201 C-0.14000000059604645,6.547999858856201 -5,9.687999725341797 -5,9.687999725341797 C-5.599999904632568,10.07800006866455 -6.360000133514404,10.107999801635742 -6.989999771118164,9.758000373840332 C-7.610000133514404,9.418000221252441 -8,8.758000373840332 -8,8.04800033569336 C-8,8.04800033569336 -8,-8.251999855041504 -8,-8.251999855041504 C-8,-9.211999893188477 -7.21999979019165,-10.001999855041504 -6.25,-10.001999855041504 C-6.25,-10.001999855041504 6.25,-10.001999855041504 6.25,-10.001999855041504 C7.21999979019165,-10.001999855041504 8,-9.211999893188477 8,-8.251999855041504 C8,-8.251999855041504 8,8.04800033569336 8,8.04800033569336 C8,8.758000373840332 7.610000133514404,9.418000221252441 6.980000019073486,9.758000373840332 C6.690000057220459,9.918000221252441 6.369999885559082,9.998000144958496 6.050000190734863,9.998000144958496z M5.809999942779541,8.428000450134277 C6.010000228881836,8.557999610900879 6.199999809265137,8.477999687194824 6.269999980926514,8.447999954223633 C6.340000152587891,8.407999992370605 6.5,8.29800033569336 6.5,8.04800033569336 C6.5,8.04800033569336 6.5,-8.251999855041504 6.5,-8.251999855041504 C6.5,-8.392000198364258 6.389999866485596,-8.501999855041504 6.25,-8.501999855041504 C6.25,-8.501999855041504 -6.25,-8.501999855041504 -6.25,-8.501999855041504 C-6.389999866485596,-8.501999855041504 -6.5,-8.392000198364258 -6.5,-8.251999855041504 C-6.5,-8.251999855041504 -6.5,8.04800033569336 -6.5,8.04800033569336 C-6.5,8.288000106811523 -6.340000152587891,8.407999992370605 -6.269999980926514,8.447999954223633 C-6.199999809265137,8.48799991607666 -6.010000228881836,8.567999839782715 -5.809999942779541,8.428000450134277 C-5.809999942779541,8.428000450134277 -0.949999988079071,5.288000106811523 -0.949999988079071,5.288000106811523 C-0.3700000047683716,4.918000221252441 0.3700000047683716,4.918000221252441 0.9399999976158142,5.288000106811523 C0.9399999976158142,5.288000106811523 5.809999942779541,8.428000450134277 5.809999942779541,8.428000450134277z"></path></g></g><g class="primary design" transform="matrix(1,0,0,1,250.00399780273438,249.83599853515625)" opacity="1" style="display: none;"><g opacity="1" transform="matrix(1,0,0,1,0,0)"><path stroke-linecap="round" stroke-linejoin="round" fill-opacity="0" stroke="#725b3a" stroke-opacity="1" stroke-width="31.3" d=" M130.26199340820312,-192.5659942626953 C130.26199340820312,-192.5659942626953 -130.26199340820312,-192.5659942626953 -130.26199340820312,-192.5659942626953 C-135.86399841308594,-192.5659942626953 -140.9499969482422,-190.35499572753906 -144.69400024414062,-186.75799560546875"></path></g></g><g class="primary design" transform="matrix(1,0,0,1,252.5,156)" opacity="1" style="display: none;"><path fill="#28353c" fill-opacity="1" d=" M184.5,-98 C184.5,-98 184.5,-98 184.5,-98 C184.5,-97.99 184.49,-97.98 184.48,-97.98 C184.48,-97.98 -189.48,-97.98 -189.48,-97.98 C-189.49,-97.98 -189.5,-97.99 -189.5,-98 C-189.5,-98 -189.5,-98 -189.5,-98 C-189.5,-98.01 -189.49,-98.02 -189.48,-98.02 C-189.48,-98.02 184.48,-98.02 184.48,-98.02 C184.49,-98.02 184.5,-98.01 184.5,-98z"></path><g opacity="1" transform="matrix(1,0,0,1,-2.5,-98)"><path stroke-linecap="round" stroke-linejoin="round" fill-opacity="0" stroke="#725b3a" stroke-opacity="1" stroke-width="31.3" d=" M187,0 C187,0 187,0 187,0 C187,0.013213866390287876 186.98927307128906,0.023942500352859497 186.97605895996094,0.023942500352859497 C186.97605895996094,0.023942500352859497 -186.97605895996094,0.023942500352859497 -186.97605895996094,0.023942500352859497 C-186.98927307128906,0.023942500352859497 -187,0.013213866390287876 -187,0 C-187,0 -187,0 -187,0 C-187,-0.013213866390287876 -186.98927307128906,-0.023942500352859497 -186.97605895996094,-0.023942500352859497 C-186.97605895996094,-0.023942500352859497 186.97605895996094,-0.023942500352859497 186.97605895996094,-0.023942500352859497 C186.98927307128906,-0.023942500352859497 187,-0.013213866390287876 187,0z"></path></g></g></g><g style="display: none;"><path></path></g></g></svg>