<?xml version="1.0" encoding="UTF-8"?>
<svg id="Calque_1" data-name="Calque 1" xmlns="http://www.w3.org/2000/svg" viewBox="0 0 15.87 340.1">
  <defs>
    <style>
      .cls-1 {
        fill: #e6e6e6;
      }

      .cls-1, .cls-2 {
        stroke-width: .5px;
      }

      .cls-1, .cls-2, .cls-3 {
        stroke: #4d4d4d;
        stroke-miterlimit: 10;
      }

      .cls-2, .cls-3 {
        fill: #fff;
      }

      .cls-3 {
        stroke-width: .1px;
      }
    </style>
  </defs>
  <path class="cls-2" d="m15.62,16.78v309.83c0,.83-1.54,1.51-3.57,1.65V15.13c2.03.13,3.57.82,3.57,1.65Z"/>
  <rect class="cls-1" x="8.59" y="13" width=".15" height="317.16"/>
  <path class="cls-3" d="m14.09,14.7v313.76c0,.72-.48,1.33-1.16,1.58V13.12c.68.25,1.16.86,1.16,1.58Z"/>
  <path class="cls-3" d="m11.4,9.79v322.44c0,.76-.51,1.4-1.23,1.63.07-.17.1-.35.1-.54V8.19c.67.26,1.13.88,1.13,1.6Z"/>
  <path class="cls-3" d="m12.93,11.87v318.47c0,.85-.66,1.55-1.53,1.7V10.18c.87.13,1.53.83,1.53,1.69Z"/>
  <rect class="cls-1" x="8.59" y="13" width=".15" height="317.16"/>
  <path class="cls-3" d="m10.27,8.2v326.12c0,.19-.04.37-.15.54-.29.61-1.09,1.07-2.08,1.19V6.47c1.25.14,2.21.85,2.23,1.73Z"/>
  <path class="cls-3" d="m9.41,5.31v329.98c0,.19-.04.38-.15.55-.29.62-1.09,1.09-2.07,1.21V3.57c1.25.14,2.21.86,2.22,1.75Z"/>
  <path class="cls-3" d="m7.58,3.06v334.18c0,.89-.66,1.63-1.53,1.78V1.28c.87.14,1.53.88,1.53,1.78Z"/>
  <path class="cls-3" d="m6.55,1.84v336.42c0,.9-2.8,1.64-6.5,1.79V.05c3.7.14,6.5.89,6.5,1.79Z"/>
</svg>