<?xml version="1.0" encoding="utf-8"?>
<!-- Generator: Adobe Illustrator 26.2.1, SVG Export Plug-In . SVG Version: 6.00 Build 0)  -->
<svg version="1.1" id="Calque_1" xmlns="http://www.w3.org/2000/svg" xmlns:xlink="http://www.w3.org/1999/xlink"  x="0px" y="0px" viewBox="0 0 331.8 27.4"
     style="width: 100%; height: 5em; display: block;"
     xml:space="preserve" preserveAspectRatio="none">
<style type="text/css">
	.st0{fill:#EBDFD1;}
	.st1{fill:url(#SVGID_1_);}
	.st2{fill:#FFFCFC;}
</style>
<desc>etagere</desc>
<g id="et9jDBtuCKu144vNsx1gT" transform="matrix(1 0 0 1 252.03 122.96)">
	<path vector-effect="non-scaling-stroke" class="st0" d="M-227.8-102.8L-252-123H47.1l23.7,20.2H-227.8z"/>
</g>
<linearGradient id="SVGID_1_" gradientUnits="userSpaceOnUse" x1="-89.52" y1="468.6453" x2="-65.6711" y2="468.6453" gradientTransform="matrix(1 0 0 1 89.52 -454.9203)">
	<stop  offset="0" style="stop-color:#E0CFBE"/>
	<stop  offset="1" style="stop-color:#EDE4DE"/>
</linearGradient>
<path vector-effect="non-scaling-stroke" class="st1" d="M0,0l23.8,19.4v8.1L0,9.5V0z"/>
<g id="_x31_Ji1yAxWf6OuwEMOg9lZ5" transform="matrix(1 0 0 1 264.5 137.45)">
	<g>
		<g>
			<path vector-effect="non-scaling-stroke" class="st2" d="M58-116.8v3.8c0,1.7-1.4,3-3,3h-295c-1.7,0-3-1.4-3-3v-2.3
				c0-1.7,1.4-3,3-3H56.4C57.3-118.4,58-117.7,58-116.8z"/>
		</g>
	</g>
</g>
</svg>

